Coordinates
version=1
nRows=14
nColumns=42
inDegrees=yes

Units are S.I. units (second, meters, Newtons, ...)
If the header above contains a line with 'inDegrees', this indicates whether rotational values are in degrees (yes) or radians (no).

endheader
time	pelvis_tilt	pelvis_list	pelvis_rotation	pelvis_tx	pelvis_ty	pelvis_tz	hip_flexion_r	hip_adduction_r	hip_rotation_r	knee_angle_r	knee_adduction_r	knee_angle_r_beta	ankle_angle_r	subtalar_angle_r	mtp_angle_r	hip_flexion_l	hip_adduction_l	hip_rotation_l	knee_angle_l	knee_adduction_l	knee_angle_l_beta	ankle_angle_l	subtalar_angle_l	mtp_angle_l	lumbar_extension	lumbar_bending	lumbar_rotation	arm_flex_r	arm_add_r	arm_rot_r	elbow_flex_r	pro_sup_r	wrist_flex_r	wrist_dev_r	arm_flex_l	arm_add_l	arm_rot_l	elbow_flex_l	pro_sup_l	wrist_flex_l	wrist_dev_l
      0.90000000	      6.89659345	      6.60870024	      4.64008449	     -0.21110005	      1.00290819	     -0.40221566	     -3.10250382	     -5.47894584	    -37.67998522	     18.41046422	     -8.19853496	      0.32132322	     18.30379626	     33.36567849	     -7.86757701	     21.48662166	      0.02376312	     -4.07915745	     27.60699964	      0.07415849	      0.48183304	     -1.37934691	     -8.36218228	     -7.86757701	    -28.96370960	     -7.17003638	      0.65189423	     26.79714954	    -22.49182227	     21.85733224	     38.17496185	     90.00000001	      0.00000000	      0.00000000	     -7.02106440	    -16.99782594	      2.57390136	     42.77137293	     90.00000001	      0.00000000	      0.00000000
      0.91000000	      7.03840781	      6.40587411	      4.48496190	     -0.20377042	      1.00148581	     -0.40253151	     -3.58344161	     -5.18444696	    -37.48078599	     18.56207854	     -8.30882993	      0.32396939	     18.40236798	     32.99730864	     -7.86494297	     22.23418428	      0.04171248	     -4.35919098	     26.99151696	      0.05916817	      0.47109084	     -1.31911483	     -8.14484492	     -7.86494297	    -28.91789466	     -7.05040105	      1.10380057	     27.61411961	    -22.92132062	     21.69881955	     38.39729838	     90.00000001	      0.00000000	      0.00000000	     -7.82584464	    -16.74322030	      2.66986758	     42.55541090	     90.00000001	      0.00000000	      0.00000000
      0.92000000	      7.56137460	      6.22323575	      4.27471445	     -0.19610293	      1.00046199	     -0.40284425	     -4.43214280	     -4.87625940	    -37.50172021	     18.82507306	     -8.65135442	      0.32855951	     19.58445513	     33.23701025	     -7.83949647	     22.42981214	      0.03346154	     -5.65322915	     26.15869718	     -0.42548755	      0.45655539	     -0.71334459	     -5.48819265	     -7.83949647	    -29.26722715	     -6.90222814	      1.30036327	     28.76666323	    -23.18553292	     22.83868538	     38.29171084	     90.00000001	      0.00000000	      0.00000000	     -8.66960877	    -16.56431254	      3.42664791	     42.45957999	     90.00000001	      0.00000000	      0.00000000
      0.93000000	      7.71960309	      6.00976531	      4.15539241	     -0.18849974	      0.99892497	     -0.40331631	     -4.95594582	     -4.58572697	    -37.26045682	     19.01603411	     -8.75233947	      0.33189241	     19.69866829	     32.88509569	     -7.83709778	     23.04775581	      0.07767617	     -5.85614801	     25.61407255	     -0.49653202	      0.44704990	     -0.68745941	     -5.34803451	     -7.83709778	    -29.22181834	     -6.76180194	      1.69722841	     29.44604102	    -23.57201200	     22.66151468	     38.51216384	     90.00000001	      0.00000000	      0.00000000	     -9.46497083	    -16.29740374	      3.52074665	     42.26553222	     90.00000001	      0.00000000	      0.00000000
      0.94000000	      8.25594825	      5.87585371	      3.98655600	     -0.18068746	      0.99787258	     -0.40374677	     -5.90637837	     -4.34111345	    -37.01983419	     19.24893959	     -8.92903427	      0.33595737	     20.89458116	     32.66828225	     -7.82986419	     23.00662832	      0.21423338	     -6.23929901	     24.68952480	     -0.75494336	      0.43091350	     -0.79512163	     -4.52945843	     -7.82986419	    -29.60554617	     -6.67484061	      1.88905646	     30.24674201	    -23.69652760	     22.65954594	     38.84794202	     90.00000001	      0.00000000	      0.00000000	    -10.21757439	    -16.01002416	      3.82550283	     42.22814228	     90.00000001	      0.00000000	      0.00000000
      0.95000000	      8.60700258	      5.69589726	      3.82253360	     -0.17278198	      0.99648734	     -0.40427416	     -6.67295059	     -4.10098254	    -36.78080287	     19.46342186	     -9.04153297	      0.33970080	     21.58899949	     32.45811441	     -7.82211929	     23.25292936	      0.28961587	     -6.62586941	     24.13281358	     -1.00435052	      0.42119705	     -0.68417029	     -3.71916897	     -7.82211929	    -29.75951783	     -6.56728624	      2.18411666	     30.94568507	    -23.93925845	     22.66993585	     39.11052626	     90.00000001	      0.00000000	      0.00000000	    -11.02459750	    -15.77247876	      4.14809515	     42.28564553	     90.00000001	      0.00000000	      0.00000000
      0.96000000	      8.84760621	      5.46177172	      3.64323533	     -0.16485524	      0.99490220	     -0.40478390	     -7.28775871	     -3.80766843	    -36.52870230	     19.68841606	     -9.20347459	      0.34362768	     21.89605430	     32.20095222	     -7.81862957	     23.59018278	      0.29932985	     -6.80525309	     23.69112060	     -1.19538338	      0.41348806	     -0.63666543	     -3.39703866	     -7.81862957	    -29.78027999	     -6.43233745	      2.53540635	     31.57384485	    -24.13843519	     22.57541498	     39.36481459	     90.00000001	      0.00000000	      0.00000000	    -11.75235600	    -15.45062865	      4.32650405	     42.21860512	     90.00000001	      0.00000000	      0.00000000
      0.97000000	      9.07546054	      5.24693523	      3.47208919	     -0.15670935	      0.99326905	     -0.40545406	     -7.94225158	     -3.57237614	    -36.27425157	     19.89595262	     -9.29714516	      0.34724988	     22.22567299	     31.96555227	     -7.81588087	     23.87495752	      0.33923005	     -6.90649138	     23.31655724	     -1.37456143	      0.40695069	     -0.60912535	     -3.12143425	     -7.81588087	    -29.73841617	     -6.29132351	      2.87249483	     32.13824229	    -24.35570125	     22.46668830	     39.59730521	     90.00000001	      0.00000000	      0.00000000	    -12.47383756	    -15.09856835	      4.48569497	     42.15715223	     90.00000001	      0.00000000	      0.00000000
      0.98000000	      9.58630057	      5.11036744	      3.20302000	     -0.14830648	      0.99187360	     -0.40601287	     -8.96724962	     -3.48763694	    -36.19938207	     20.06591124	     -9.32460720	      0.35021622	     23.39203100	     32.33873732	     -7.79534139	     23.84232596	      0.35184275	     -7.80383209	     23.08599995	     -1.80401962	      0.40292671	      0.04636190	     -0.72712251	     -7.79534139	    -30.04577480	     -6.29616534	      3.13340267	     32.72823226	    -24.62940291	     22.90284287	     40.07634187	     90.00000001	      0.00000000	      0.00000000	    -13.52308480	    -15.10555120	      5.20859620	     43.04362153	     90.00000001	      0.00000000	      0.00000000
      0.99000000	      9.89833661	      4.93151931	      2.93360378	     -0.13988422	      0.99033000	     -0.40669145	     -9.76290795	     -3.32899053	    -35.92984390	     20.20582083	     -9.41812058	      0.35265810	     23.96597625	     32.28290897	     -7.79058709	     23.85044052	      0.37024355	     -7.72949169	     22.75491058	     -1.88634309	      0.39714811	      0.09058778	     -0.42082637	     -7.79058709	    -30.08787758	     -6.23386312	      3.46398602	     33.24093263	    -24.77852292	     22.81001735	     40.33088558	     90.00000001	      0.00000000	      0.00000000	    -14.16834937	    -14.76353926	      5.33049412	     42.90209667	     90.00000001	      0.00000000	      0.00000000
      1.00000000	      9.99760753	      4.74288886	      2.65960691	     -0.13142555	      0.98850952	     -0.40728871	    -10.30263693	     -3.23670364	    -35.90734494	     20.35652314	     -9.50451650	      0.35528835	     24.08250229	     32.31366717	     -7.79005585	     24.10177721	      0.38406552	     -7.60649307	     22.63126034	     -2.01871412	      0.39499001	      0.09316131	     -0.35396275	     -7.79005585	    -29.91855614	     -6.25962413	      3.86940859	     33.61044915	    -24.89573287	     22.74217466	     40.45507961	     90.00000001	      0.00000000	      0.00000000	    -14.80231743	    -14.43417102	      5.42585672	     42.76513874	     90.00000001	      0.00000000	      0.00000000
      1.01000000	     10.29934002	      4.51323697	      2.29126931	     -0.12283417	      0.98695185	     -0.40793756	    -11.07960926	     -3.11041971	    -35.56626834	     20.55712463	     -9.53457868	      0.35878951	     24.88000164	     32.55407321	     -7.78734682	     23.92867710	      0.29678204	     -7.39915729	     22.30709768	     -2.03665443	      0.38933230	      0.23387564	      0.03728238	     -7.78734682	    -29.95979718	     -6.19680077	      4.22519930	     34.10556418	    -24.97573182	     22.67492765	     40.83301523	     90.00000001	      0.00000000	      0.00000000	    -15.49382048	    -14.03607961	      5.48701616	     42.87008039	     90.00000001	      0.00000000	      0.00000000
      1.02000000	     10.52838579	      4.34024196	      1.92105058	     -0.11397349	      0.98527341	     -0.40864130	    -11.80880124	     -3.09541873	    -35.51025454	     20.68738035	     -9.60957602	      0.36106290	     25.50639833	     32.91741032	     -7.77279913	     23.86255835	      0.23592149	     -7.64132193	     22.23272909	     -2.21241352	      0.38803432	      0.71646000	      1.30912343	     -7.77279913	    -29.91128371	     -6.24045069	      4.58917245	     34.28764990	    -25.22280498	     22.76337571	     41.55069926	     90.00000001	      0.00000000	      0.00000000	    -16.35509233	    -13.67923241	      5.25902141	     43.45613354	     90.00000001	      0.00000000	      0.00000000
      1.03000000	     10.59463238	      4.13735449	      1.53256724	     -0.10508248	      0.98348679	     -0.40938348	    -12.32800949	     -3.06436731	    -35.39876771	     20.84818977	     -9.72724582	      0.36386955	     25.64483741	     32.98474724	     -7.77203454	     23.85787249	      0.15489585	     -7.44642086	     22.14589111	     -2.23594630	      0.38651872	      0.74608273	      1.42751169	     -7.77203454	    -29.66392410	     -6.26383347	      4.97809484	     34.57812313	    -25.26193791	     22.71880007	     41.67111055	     90.00000001	      0.00000000	      0.00000000	    -16.94230943	    -13.31263038	      5.34892662	     43.31169215	     90.00000001	      0.00000000	      0.00000000
